<svg width="37" height="35" viewBox="0 0 37 35" fill="none" xmlns="http://www.w3.org/2000/svg">
<mask id="path-1-outside-1_208_6" maskUnits="userSpaceOnUse" x="1" y="5" width="27" height="15" fill="black">
<rect fill="white" x="1" y="5" width="27" height="15"/>
<path d="M5.07901 18.1C4.74567 18.1 4.45234 18 4.19901 17.8C3.94567 17.6 3.81901 17.2867 3.81901 16.86L3.83901 16.64C3.98567 15.2667 4.15901 13.84 4.35901 12.36C4.57234 10.8667 4.75234 9.72 4.89901 8.92L3.33901 9.36L3.09901 9.4C2.84567 9.4 2.64567 9.3 2.49901 9.1C2.35234 8.9 2.27901 8.67333 2.27901 8.42L2.29901 8.24C2.32567 7.98667 2.40567 7.78 2.53901 7.62C2.67234 7.46 2.92567 7.3 3.29901 7.14C3.68567 6.98 4.25901 6.80667 5.01901 6.62L5.85901 6.42C6.16567 6.35333 6.41901 6.32 6.61901 6.32C7.00567 6.32 7.29234 6.42 7.47901 6.62C7.67901 6.82 7.77901 7.1 7.77901 7.46C7.77901 7.62 7.75901 7.79333 7.71901 7.98C7.50567 9.02 7.09901 11.98 6.49901 16.86C6.39234 17.6867 5.91901 18.1 5.07901 18.1ZM10.8785 13.08C10.5585 13.1067 10.2985 13.0133 10.0985 12.8C9.91187 12.5867 9.81854 12.2867 9.81854 11.9C9.81854 11.54 9.90521 11.2733 10.0785 11.1C10.2652 10.9267 10.5319 10.8267 10.8785 10.8L14.9785 10.4C15.3119 10.3733 15.5652 10.46 15.7385 10.66C15.9252 10.8467 16.0185 11.1267 16.0185 11.5C16.0185 12.22 15.6719 12.6133 14.9785 12.68L10.8785 13.08ZM22.6049 6.32C23.9783 6.32 25.0249 6.75333 25.7449 7.62C26.4783 8.47333 26.8449 9.66 26.8449 11.18C26.8449 12.54 26.6116 13.7467 26.1449 14.8C25.6916 15.84 25.0383 16.6533 24.1849 17.24C23.3449 17.8133 22.3583 18.1 21.2249 18.1C20.1983 18.1 19.3516 17.8667 18.6849 17.4C18.0316 16.92 17.6583 16.2933 17.5649 15.52L17.5449 15.3C17.5449 14.9533 17.6516 14.6867 17.8649 14.5C18.0916 14.3 18.4049 14.2 18.8049 14.2C19.0983 14.2 19.3316 14.28 19.5049 14.44C19.6916 14.5867 19.8516 14.8467 19.9849 15.22C20.0916 15.5 20.2649 15.72 20.5049 15.88C20.7583 16.04 21.0716 16.12 21.4449 16.12C22.2183 16.12 22.8449 15.82 23.3249 15.22C23.8183 14.6067 24.1249 13.7 24.2449 12.5C23.8983 12.9 23.5049 13.1867 23.0649 13.36C22.6249 13.52 22.1383 13.6 21.6049 13.6C20.9383 13.6 20.3383 13.46 19.8049 13.18C19.2849 12.9 18.8783 12.5133 18.5849 12.02C18.2916 11.5133 18.1449 10.9533 18.1449 10.34C18.1449 9.58 18.3183 8.9 18.6649 8.3C19.0249 7.68667 19.5383 7.20667 20.2049 6.86C20.8849 6.5 21.6849 6.32 22.6049 6.32ZM22.2049 11.6C22.7783 11.6 23.2249 11.44 23.5449 11.12C23.8649 10.8 24.0249 10.3733 24.0249 9.84C24.0249 9.36 23.8916 8.98 23.6249 8.7C23.3583 8.42 22.9849 8.28 22.5049 8.28C21.9716 8.28 21.5383 8.45333 21.2049 8.8C20.8849 9.13333 20.7249 9.57333 20.7249 10.12C20.7249 10.5733 20.8583 10.9333 21.1249 11.2C21.3916 11.4667 21.7516 11.6 22.2049 11.6Z"/>
</mask>
<path d="M5.07901 18.1C4.74567 18.1 4.45234 18 4.19901 17.8C3.94567 17.6 3.81901 17.2867 3.81901 16.86L3.83901 16.64C3.98567 15.2667 4.15901 13.84 4.35901 12.36C4.57234 10.8667 4.75234 9.72 4.89901 8.92L3.33901 9.36L3.09901 9.4C2.84567 9.4 2.64567 9.3 2.49901 9.1C2.35234 8.9 2.27901 8.67333 2.27901 8.42L2.29901 8.24C2.32567 7.98667 2.40567 7.78 2.53901 7.62C2.67234 7.46 2.92567 7.3 3.29901 7.14C3.68567 6.98 4.25901 6.80667 5.01901 6.62L5.85901 6.42C6.16567 6.35333 6.41901 6.32 6.61901 6.32C7.00567 6.32 7.29234 6.42 7.47901 6.62C7.67901 6.82 7.77901 7.1 7.77901 7.46C7.77901 7.62 7.75901 7.79333 7.71901 7.98C7.50567 9.02 7.09901 11.98 6.49901 16.86C6.39234 17.6867 5.91901 18.1 5.07901 18.1ZM10.8785 13.08C10.5585 13.1067 10.2985 13.0133 10.0985 12.8C9.91187 12.5867 9.81854 12.2867 9.81854 11.9C9.81854 11.54 9.90521 11.2733 10.0785 11.1C10.2652 10.9267 10.5319 10.8267 10.8785 10.8L14.9785 10.4C15.3119 10.3733 15.5652 10.46 15.7385 10.66C15.9252 10.8467 16.0185 11.1267 16.0185 11.5C16.0185 12.22 15.6719 12.6133 14.9785 12.68L10.8785 13.08ZM22.6049 6.32C23.9783 6.32 25.0249 6.75333 25.7449 7.62C26.4783 8.47333 26.8449 9.66 26.8449 11.18C26.8449 12.54 26.6116 13.7467 26.1449 14.8C25.6916 15.84 25.0383 16.6533 24.1849 17.24C23.3449 17.8133 22.3583 18.1 21.2249 18.1C20.1983 18.1 19.3516 17.8667 18.6849 17.4C18.0316 16.92 17.6583 16.2933 17.5649 15.52L17.5449 15.3C17.5449 14.9533 17.6516 14.6867 17.8649 14.5C18.0916 14.3 18.4049 14.2 18.8049 14.2C19.0983 14.2 19.3316 14.28 19.5049 14.44C19.6916 14.5867 19.8516 14.8467 19.9849 15.22C20.0916 15.5 20.2649 15.72 20.5049 15.88C20.7583 16.04 21.0716 16.12 21.4449 16.12C22.2183 16.12 22.8449 15.82 23.3249 15.22C23.8183 14.6067 24.1249 13.7 24.2449 12.5C23.8983 12.9 23.5049 13.1867 23.0649 13.36C22.6249 13.52 22.1383 13.6 21.6049 13.6C20.9383 13.6 20.3383 13.46 19.8049 13.18C19.2849 12.9 18.8783 12.5133 18.5849 12.02C18.2916 11.5133 18.1449 10.9533 18.1449 10.34C18.1449 9.58 18.3183 8.9 18.6649 8.3C19.0249 7.68667 19.5383 7.20667 20.2049 6.86C20.8849 6.5 21.6849 6.32 22.6049 6.32ZM22.2049 11.6C22.7783 11.6 23.2249 11.44 23.5449 11.12C23.8649 10.8 24.0249 10.3733 24.0249 9.84C24.0249 9.36 23.8916 8.98 23.6249 8.7C23.3583 8.42 22.9849 8.28 22.5049 8.28C21.9716 8.28 21.5383 8.45333 21.2049 8.8C20.8849 9.13333 20.7249 9.57333 20.7249 10.12C20.7249 10.5733 20.8583 10.9333 21.1249 11.2C21.3916 11.4667 21.7516 11.6 22.2049 11.6Z" fill="#5BC0E8"/>
<path d="M4.19901 17.8L4.81865 17.0151L4.81865 17.0151L4.19901 17.8ZM3.81901 16.86L2.82311 16.7695L2.81901 16.8146V16.86H3.81901ZM3.83901 16.64L2.84466 16.5338L2.84383 16.5416L2.84311 16.5495L3.83901 16.64ZM4.35901 12.36L3.36903 12.2186L3.36801 12.2261L4.35901 12.36ZM4.89901 8.92L5.88261 9.10033L6.17198 7.52194L4.62755 7.95755L4.89901 8.92ZM3.33901 9.36L3.50341 10.3464L3.55759 10.3374L3.61047 10.3224L3.33901 9.36ZM3.09901 9.4V10.4H3.18177L3.26341 10.3864L3.09901 9.4ZM2.49901 9.1L3.30541 8.50864L3.30541 8.50864L2.49901 9.1ZM2.27901 8.42L1.28512 8.30957L1.27901 8.36461V8.42H2.27901ZM2.29901 8.24L3.29291 8.35043L3.29351 8.34468L2.29901 8.24ZM2.53901 7.62L1.77079 6.97981L1.77079 6.97982L2.53901 7.62ZM3.29901 7.14L2.91663 6.21591L2.90509 6.22085L3.29901 7.14ZM5.01901 6.62L4.78738 5.64717L4.78048 5.64886L5.01901 6.62ZM5.85901 6.42L5.64658 5.44282L5.63696 5.44491L5.62739 5.44719L5.85901 6.42ZM7.47901 6.62L6.74795 7.30232L6.75971 7.31492L6.7719 7.32711L7.47901 6.62ZM7.71901 7.98L6.74117 7.77046L6.7394 7.77905L7.71901 7.98ZM6.49901 16.86L7.4908 16.988L7.49153 16.982L6.49901 16.86ZM5.07901 18.1V17.1C4.96258 17.1 4.88935 17.0709 4.81865 17.0151L4.19901 17.8L3.57936 18.5849C4.01533 18.9291 4.52877 19.1 5.07901 19.1V18.1ZM4.19901 17.8L4.81865 17.0151C4.82407 17.0194 4.83074 17.026 4.8365 17.0338C4.8421 17.0413 4.84297 17.0448 4.84112 17.0402C4.83674 17.0294 4.81901 16.9773 4.81901 16.86H3.81901H2.81901C2.81901 17.4865 3.01326 18.138 3.57936 18.5849L4.19901 17.8ZM3.81901 16.86L4.8149 16.9505L4.8349 16.7305L3.83901 16.64L2.84311 16.5495L2.82311 16.7695L3.81901 16.86ZM3.83901 16.64L4.83335 16.7462C4.97896 15.3828 5.15115 13.9654 5.35 12.4939L4.35901 12.36L3.36801 12.2261C3.16687 13.7146 2.99239 15.1505 2.84466 16.5338L3.83901 16.64ZM4.35901 12.36L5.34896 12.5014C5.56171 11.0121 5.73952 9.88082 5.88261 9.10033L4.89901 8.92L3.9154 8.73967C3.76516 9.55918 3.58297 10.7212 3.36906 12.2186L4.35901 12.36ZM4.89901 8.92L4.62755 7.95755L3.06755 8.39755L3.33901 9.36L3.61047 10.3224L5.17047 9.88245L4.89901 8.92ZM3.33901 9.36L3.17461 8.37361L2.93461 8.41361L3.09901 9.4L3.26341 10.3864L3.50341 10.3464L3.33901 9.36ZM3.09901 9.4V8.4C3.1068 8.4 3.1499 8.40241 3.20622 8.43057C3.26328 8.4591 3.2952 8.49471 3.30541 8.50864L2.49901 9.1L1.6926 9.69136C2.03237 10.1547 2.53521 10.4 3.09901 10.4V9.4ZM2.49901 9.1L3.30541 8.50864C3.28739 8.48406 3.27901 8.46554 3.27901 8.42H2.27901H1.27901C1.27901 8.88113 1.41729 9.31594 1.6926 9.69136L2.49901 9.1ZM2.27901 8.42L3.27289 8.53043L3.29289 8.35043L2.29901 8.24L1.30512 8.12957L1.28512 8.30957L2.27901 8.42ZM2.29901 8.24L3.29351 8.34468C3.29895 8.29301 3.30778 8.2658 3.31158 8.25599C3.31485 8.24752 3.31449 8.25147 3.30723 8.26018L2.53901 7.62L1.77079 6.97982C1.48484 7.32295 1.34723 7.72935 1.3045 8.13531L2.29901 8.24ZM2.53901 7.62L3.30723 8.26018C3.28473 8.28718 3.28939 8.27198 3.363 8.22549C3.43247 8.18161 3.53898 8.12512 3.69293 8.05914L3.29901 7.14L2.90509 6.22085C2.4995 6.39468 2.06192 6.63046 1.77079 6.97981L2.53901 7.62ZM3.29901 7.14L3.68136 8.06402C3.99723 7.93331 4.5122 7.7742 5.25753 7.59114L5.01901 6.62L4.78048 5.64886C4.00582 5.83913 3.37412 6.02669 2.91666 6.21598L3.29901 7.14ZM5.01901 6.62L5.25063 7.59281L6.09063 7.3928L5.85901 6.42L5.62739 5.44719L4.78739 5.64719L5.01901 6.62ZM5.85901 6.42L6.07144 7.39718C6.34295 7.33815 6.5188 7.32 6.61901 7.32V6.32V5.32C6.31921 5.32 5.9884 5.36851 5.64658 5.44282L5.85901 6.42ZM6.61901 6.32V7.32C6.72942 7.32 6.78164 7.33467 6.79463 7.3392C6.80003 7.34108 6.7955 7.3401 6.78492 7.33339C6.77396 7.32644 6.76075 7.31603 6.74795 7.30232L7.47901 6.62L8.21006 5.93768C7.76694 5.46291 7.16572 5.32 6.61901 5.32V6.32ZM7.47901 6.62L6.7719 7.32711C6.76185 7.31706 6.75945 7.30846 6.76227 7.31634C6.76656 7.32835 6.77901 7.37121 6.77901 7.46H7.77901H8.77901C8.77901 6.91074 8.62128 6.34806 8.18611 5.91289L7.47901 6.62ZM7.77901 7.46H6.77901C6.77901 7.53761 6.76918 7.6399 6.74121 7.77047L7.71901 7.98L8.69681 8.18953C8.74883 7.94677 8.77901 7.70239 8.77901 7.46H7.77901ZM7.71901 7.98L6.7394 7.77905C6.51603 8.86802 6.10418 11.8767 5.50648 16.738L6.49901 16.86L7.49153 16.982C8.09383 12.0833 8.49532 9.17197 8.69861 8.18094L7.71901 7.98ZM6.49901 16.86L5.50723 16.732C5.49101 16.8578 5.46488 16.9351 5.44445 16.9788C5.42553 17.0193 5.41086 17.0327 5.40625 17.0368C5.40552 17.0374 5.33954 17.1 5.07901 17.1V18.1V19.1C5.65848 19.1 6.24917 18.9559 6.72176 18.5432C7.19543 18.1296 7.41657 17.5632 7.49079 16.988L6.49901 16.86ZM10.8785 13.08L10.9616 14.0766L10.9756 14.0753L10.8785 13.08ZM10.0985 12.8L9.34596 13.4585L9.35726 13.4714L9.369 13.4839L10.0985 12.8ZM10.0785 11.1L9.39809 10.3672L9.38452 10.3798L9.37143 10.3929L10.0785 11.1ZM10.8785 10.8L10.9552 11.7971L10.9654 11.7963L10.9756 11.7953L10.8785 10.8ZM14.9785 10.4L14.8988 9.40318L14.8901 9.40388L14.8814 9.40472L14.9785 10.4ZM15.7385 10.66L14.9828 11.3149L15.0062 11.3419L15.0314 11.3671L15.7385 10.66ZM14.9785 12.68L14.8828 11.6846L14.8814 11.6847L14.9785 12.68ZM10.8785 13.08L10.7955 12.0835C10.7747 12.0852 10.7649 12.0841 10.764 12.084C10.7635 12.084 10.7701 12.0848 10.7814 12.0888C10.7929 12.0929 10.8045 12.0988 10.8145 12.1054C10.8243 12.112 10.8287 12.1167 10.8281 12.1161L10.0985 12.8L9.369 13.4839C9.80027 13.944 10.3713 14.1257 10.9616 14.0765L10.8785 13.08ZM10.0985 12.8L10.8511 12.1415C10.874 12.1676 10.8185 12.133 10.8185 11.9H9.81854H8.81854C8.81854 12.4403 8.94978 13.0057 9.34596 13.4585L10.0985 12.8ZM9.81854 11.9H10.8185C10.8185 11.7967 10.8314 11.7489 10.8346 11.7391C10.8358 11.7354 10.8339 11.7424 10.8257 11.7562C10.8173 11.7705 10.8042 11.7886 10.7856 11.8071L10.0785 11.1L9.37143 10.3929C8.93815 10.8262 8.81854 11.3986 8.81854 11.9H9.81854ZM10.0785 11.1L10.759 11.8328C10.7287 11.8609 10.7523 11.8127 10.9552 11.7971L10.8785 10.8L10.8018 9.80295C10.3114 9.84067 9.80173 9.9924 9.39809 10.3672L10.0785 11.1ZM10.8785 10.8L10.9756 11.7953L15.0756 11.3953L14.9785 10.4L14.8814 9.40472L10.7814 9.80473L10.8785 10.8ZM14.9785 10.4L15.0583 11.3968C15.1213 11.3918 15.1257 11.4017 15.0949 11.3912C15.0789 11.3857 15.0581 11.3762 15.0358 11.3613C15.0136 11.3463 14.9957 11.3298 14.9828 11.3149L15.7385 10.66L16.4942 10.0051C16.0584 9.50224 15.4565 9.35857 14.8988 9.40318L14.9785 10.4ZM15.7385 10.66L15.0314 11.3671C15.0026 11.3383 14.9964 11.3159 14.9999 11.3262C15.0049 11.3414 15.0185 11.3937 15.0185 11.5H16.0185H17.0185C17.0185 10.9725 16.886 10.3932 16.4456 9.95289L15.7385 10.66ZM16.0185 11.5H15.0185C15.0185 11.7077 14.9692 11.7182 15.0083 11.6738C15.0251 11.6548 15.0382 11.6502 15.029 11.6542C15.0161 11.6599 14.9727 11.676 14.8828 11.6846L14.9785 12.68L15.0743 13.6754C15.5886 13.626 16.1185 13.4389 16.5087 12.9962C16.8946 12.5584 17.0185 12.0123 17.0185 11.5H16.0185ZM14.9785 12.68L14.8814 11.6847L10.7814 12.0847L10.8785 13.08L10.9756 14.0753L15.0756 13.6753L14.9785 12.68ZM25.7449 7.62L24.9758 8.25902L24.9811 8.26544L24.9865 8.27177L25.7449 7.62ZM26.1449 14.8L25.2306 14.3949L25.2283 14.4004L26.1449 14.8ZM24.1849 17.24L24.7487 18.066L24.7515 18.064L24.1849 17.24ZM18.6849 17.4L18.0929 18.2059L18.1021 18.2127L18.1115 18.2192L18.6849 17.4ZM17.5649 15.52L16.5691 15.6105L16.5704 15.6252L16.5721 15.6398L17.5649 15.52ZM17.5449 15.3H16.5449V15.3454L16.5491 15.3905L17.5449 15.3ZM17.8649 14.5L18.5235 15.2526L18.5266 15.2498L17.8649 14.5ZM19.5049 14.44L18.8267 15.1748L18.8559 15.2018L18.8871 15.2263L19.5049 14.44ZM19.9849 15.22L19.0432 15.5563L19.0467 15.5662L19.0505 15.576L19.9849 15.22ZM20.5049 15.88L19.9502 16.7121L19.9605 16.7189L19.971 16.7255L20.5049 15.88ZM23.3249 15.22L22.5457 14.5932L22.5441 14.5953L23.3249 15.22ZM24.2449 12.5L25.24 12.5995L25.5536 9.46311L23.4893 11.8451L24.2449 12.5ZM23.0649 13.36L23.4067 14.2998L23.4191 14.2953L23.4315 14.2904L23.0649 13.36ZM19.8049 13.18L19.3308 14.0605L19.3401 14.0654L19.8049 13.18ZM18.5849 12.02L17.7195 12.5211L17.7254 12.5311L18.5849 12.02ZM18.6649 8.3L17.8025 7.79379L17.7991 7.79972L18.6649 8.3ZM20.2049 6.86L20.6663 7.74724L20.6728 7.74379L20.2049 6.86ZM21.2049 8.8L20.4841 8.10689L20.4836 8.10747L21.2049 8.8ZM21.1249 11.2L20.4178 11.9071L20.4178 11.9071L21.1249 11.2ZM22.6049 6.32V7.32C23.7524 7.32 24.4871 7.67085 24.9758 8.25902L25.7449 7.62L26.5141 6.98098C25.5628 5.83582 24.2041 5.32 22.6049 5.32V6.32ZM25.7449 7.62L24.9865 8.27177C25.5166 8.88858 25.8449 9.81474 25.8449 11.18H26.8449H27.8449C27.8449 9.50526 27.44 8.05808 26.5034 6.96823L25.7449 7.62ZM26.8449 11.18H25.8449C25.8449 12.4253 25.6315 13.4901 25.2307 14.3949L26.1449 14.8L27.0592 15.2051C27.5917 14.0033 27.8449 12.6547 27.8449 11.18H26.8449ZM26.1449 14.8L25.2283 14.4004C24.8423 15.2859 24.3031 15.9453 23.6184 16.416L24.1849 17.24L24.7515 18.064C25.7735 17.3614 26.541 16.3941 27.0616 15.1996L26.1449 14.8ZM24.1849 17.24L23.6212 16.4141C22.9661 16.8612 22.1811 17.1 21.2249 17.1V18.1V19.1C22.5355 19.1 23.7238 18.7655 24.7487 18.0659L24.1849 17.24ZM21.2249 18.1V17.1C20.3496 17.1 19.7177 16.9023 19.2584 16.5808L18.6849 17.4L18.1115 18.2192C18.9856 18.8311 20.047 19.1 21.2249 19.1V18.1ZM18.6849 17.4L19.277 16.5941C18.836 16.2701 18.6165 15.8869 18.5577 15.4002L17.5649 15.52L16.5721 15.6398C16.7001 16.6997 17.2272 17.5699 18.0929 18.2059L18.6849 17.4ZM17.5649 15.52L18.5608 15.4295L18.5408 15.2095L17.5449 15.3L16.5491 15.3905L16.5691 15.6105L17.5649 15.52ZM17.5449 15.3H18.5449C18.5449 15.2282 18.556 15.2049 18.5534 15.2114C18.5521 15.2147 18.5485 15.2223 18.5419 15.2317C18.5353 15.2411 18.5284 15.2482 18.5235 15.2526L17.8649 14.5L17.2064 13.7474C16.7285 14.1656 16.5449 14.7349 16.5449 15.3H17.5449ZM17.8649 14.5L18.5266 15.2498C18.5272 15.2493 18.5375 15.2393 18.574 15.2277C18.6138 15.215 18.6866 15.2 18.8049 15.2V14.2V13.2C18.2414 13.2 17.6649 13.3429 17.2033 13.7502L17.8649 14.5ZM18.8049 14.2V15.2C18.8616 15.2 18.881 15.2078 18.8756 15.2059C18.8728 15.205 18.8654 15.2021 18.8554 15.1962C18.8453 15.1902 18.8354 15.1829 18.8267 15.1748L19.5049 14.44L20.1832 13.7052C19.783 13.3357 19.2857 13.2 18.8049 13.2V14.2ZM19.5049 14.44L18.8871 15.2263C18.8654 15.2092 18.8783 15.2123 18.9133 15.2691C18.9479 15.3253 18.9934 15.4169 19.0432 15.5563L19.9849 15.22L20.9267 14.8837C20.7679 14.439 20.5266 13.971 20.1228 13.6537L19.5049 14.44ZM19.9849 15.22L19.0505 15.576C19.2281 16.0423 19.5302 16.432 19.9502 16.7121L20.5049 15.88L21.0596 15.0479C20.9997 15.008 20.9551 14.9577 20.9194 14.864L19.9849 15.22ZM20.5049 15.88L19.971 16.7255C20.4192 17.0086 20.929 17.12 21.4449 17.12V16.12V15.12C21.2143 15.12 21.0973 15.0714 21.0389 15.0345L20.5049 15.88ZM21.4449 16.12V17.12C22.5198 17.12 23.4346 16.6837 24.1058 15.8447L23.3249 15.22L22.5441 14.5953C22.2553 14.9563 21.9168 15.12 21.4449 15.12V16.12ZM23.3249 15.22L24.1042 15.8468C24.7677 15.0219 25.1102 13.8971 25.24 12.5995L24.2449 12.5L23.2499 12.4005C23.1397 13.5029 22.8689 14.1915 22.5457 14.5932L23.3249 15.22ZM24.2449 12.5L23.4893 11.8451C23.2354 12.1379 22.9712 12.3221 22.6984 12.4296L23.0649 13.36L23.4315 14.2904C24.0387 14.0512 24.5611 13.6621 25.0006 13.1549L24.2449 12.5ZM23.0649 13.36L22.7232 12.4202C22.4068 12.5352 22.0377 12.6 21.6049 12.6V13.6V14.6C22.2388 14.6 22.843 14.5048 23.4067 14.2998L23.0649 13.36ZM21.6049 13.6V12.6C21.0826 12.6 20.6449 12.4916 20.2698 12.2946L19.8049 13.18L19.3401 14.0654C20.0316 14.4284 20.7939 14.6 21.6049 14.6V13.6ZM19.8049 13.18L20.279 12.2995C19.9138 12.1028 19.6424 11.8418 19.4445 11.5089L18.5849 12.02L17.7254 12.5311C18.1142 13.1849 18.6561 13.6972 19.3308 14.0605L19.8049 13.18ZM18.5849 12.02L19.4504 11.519C19.2495 11.1719 19.1449 10.7861 19.1449 10.34H18.1449H17.1449C17.1449 11.1206 17.3338 11.8547 17.7195 12.521L18.5849 12.02ZM18.1449 10.34H19.1449C19.1449 9.73817 19.2804 9.23374 19.5308 8.80028L18.6649 8.3L17.7991 7.79972C17.3562 8.56625 17.1449 9.42183 17.1449 10.34H18.1449ZM18.6649 8.3L19.5274 8.8062C19.7867 8.3644 20.1566 8.01226 20.6663 7.74722L20.2049 6.86L19.7436 5.97278C18.9199 6.40108 18.2632 7.00893 17.8025 7.7938L18.6649 8.3ZM20.2049 6.86L20.6728 7.74379C21.183 7.4737 21.8163 7.32 22.6049 7.32V6.32V5.32C21.5536 5.32 20.5869 5.5263 19.7371 5.97621L20.2049 6.86ZM22.2049 11.6V12.6C22.9691 12.6 23.6977 12.3814 24.2521 11.8271L23.5449 11.12L22.8378 10.4129C22.7522 10.4986 22.5875 10.6 22.2049 10.6V11.6ZM23.5449 11.12L24.2521 11.8271C24.7928 11.2864 25.0249 10.5876 25.0249 9.84H24.0249H23.0249C23.0249 10.1591 22.9371 10.3136 22.8378 10.4129L23.5449 11.12ZM24.0249 9.84H25.0249C25.0249 9.16835 24.8332 8.51863 24.3491 8.01034L23.6249 8.7L22.9008 9.38965C22.9501 9.44137 23.0249 9.55165 23.0249 9.84H24.0249ZM23.6249 8.7L24.3491 8.01034C23.85 7.48634 23.1881 7.28 22.5049 7.28V8.28V9.28C22.7817 9.28 22.8665 9.35366 22.9008 9.38965L23.6249 8.7ZM22.5049 8.28V7.28C21.7323 7.28 21.0275 7.54176 20.4841 8.10689L21.2049 8.8L21.9258 9.49311C22.0491 9.3649 22.2109 9.28 22.5049 9.28V8.28ZM21.2049 8.8L20.4836 8.10747C19.9526 8.66052 19.7249 9.36567 19.7249 10.12H20.7249H21.7249C21.7249 9.78099 21.8173 9.60614 21.9263 9.49253L21.2049 8.8ZM20.7249 10.12H19.7249C19.7249 10.7812 19.9267 11.4159 20.4178 11.9071L21.1249 11.2L21.8321 10.4929C21.7899 10.4507 21.7249 10.3654 21.7249 10.12H20.7249ZM21.1249 11.2L20.4178 11.9071C20.909 12.3983 21.5437 12.6 22.2049 12.6V11.6V10.6C21.9595 10.6 21.8742 10.535 21.8321 10.4929L21.1249 11.2Z" fill="white" mask="url(#path-1-outside-1_208_6)"/>
<g filter="url(#filter0_d_208_6)">
<path d="M8.5931 25.8866C8.41194 25.9316 8.084 25.8201 7.60928 25.5522C7.13049 25.2758 6.85246 25.0579 6.77518 24.8983C6.69791 24.7387 6.35451 23.5158 5.74499 21.2298C5.14046 18.9332 4.72727 17.5348 4.50543 17.0346C4.38934 16.7529 4.46263 16.5794 4.72531 16.5142C4.94271 16.4602 5.33017 16.5898 5.88771 16.903C6.44525 17.2162 6.80943 17.5493 6.98025 17.9021C7.05346 18.0533 7.2032 18.656 7.42949 19.7103C7.66077 20.7539 7.82669 21.4844 7.92726 21.9017C8.03282 22.3084 8.12914 22.6751 8.21622 23.0016C8.29922 23.3198 8.36531 23.5716 8.41449 23.757C8.68145 24.8953 8.7811 25.5622 8.71344 25.7578C8.68756 25.8301 8.64745 25.8731 8.5931 25.8866ZM8.6057 15.5503C8.7778 15.5075 9.19632 15.5965 9.86126 15.8171C10.5312 16.0272 10.9068 16.2162 10.9882 16.3842C11.1305 16.6782 11.4685 17.1354 12.0022 17.7557C12.5359 18.376 13.0708 18.9254 13.6069 19.4039C13.7363 19.0424 13.9314 18.3869 14.1923 17.4375C14.4581 16.4774 14.7011 15.7113 14.9212 15.139C15.1414 14.5667 15.3601 14.2535 15.5775 14.1995C15.7949 14.1455 16.0763 14.2027 16.4216 14.371C16.7669 14.5393 16.9945 14.7369 17.1043 14.9637C17.2141 15.1905 17.3202 15.4935 17.4226 15.8728C17.521 16.2436 17.6001 16.5957 17.66 16.929C17.7249 17.2517 17.8039 17.6979 17.8971 18.2676C17.9994 18.8351 18.0804 19.2855 18.1403 19.6188C18.2052 19.9415 18.2778 20.2905 18.358 20.6658C18.4342 21.0328 18.4939 21.3238 18.5372 21.5389C18.5854 21.7434 18.6307 21.9627 18.673 22.1968C18.7204 22.4204 18.7499 22.5965 18.7615 22.7254C18.7691 22.8459 18.7681 22.959 18.7585 23.0649C18.7442 23.2661 18.6465 23.3892 18.4654 23.4342C18.2842 23.4792 18.0238 23.3604 17.684 23.0778C17.3492 22.7845 17.0944 22.4572 16.9195 22.096C16.4884 21.2056 16.1932 19.9566 16.034 18.3493C15.9695 18.5723 15.8798 18.9005 15.7648 19.3337C15.6458 19.7585 15.5544 20.073 15.4909 20.277C15.4323 20.4703 15.3517 20.7021 15.2491 20.9723C15.0607 21.4426 14.7899 21.7216 14.4366 21.8093C13.9656 21.9263 13.5471 21.8374 13.1811 21.5425C12.996 21.3908 12.669 21.0297 12.2 20.4592C11.736 19.8781 11.4108 19.4789 11.2245 19.2617C11.5256 20.1562 11.7474 20.981 11.8897 21.7362C12.0321 22.4913 12.1244 22.986 12.1668 23.2202C12.2091 23.4543 12.2512 23.7403 12.293 24.0781C12.368 24.6524 12.3331 24.9575 12.1882 24.9935C12.0251 25.034 11.7031 24.8929 11.2221 24.57C10.7461 24.2365 10.4531 23.9564 10.3433 23.7296C10.2335 23.5028 9.94715 22.3034 9.48423 20.1316C9.03036 17.9575 8.67328 16.6016 8.41299 16.064C8.27878 15.7867 8.34301 15.6155 8.6057 15.5503ZM22.1243 12.1639C22.3779 12.1009 22.7559 12.2423 23.2581 12.5881C23.7563 12.9254 24.0705 13.2285 24.2007 13.4973C24.3308 13.7662 24.337 13.9152 24.2192 13.9445C24.1649 13.958 24.039 13.9704 23.8416 13.9818C23.6532 13.991 23.4956 14.0113 23.3688 14.0428C22.9159 14.1553 22.5162 14.5557 22.1696 15.2441C21.823 15.9325 21.6133 16.7046 21.5404 17.5602C21.4767 18.4136 21.577 19.1133 21.8413 19.6594C21.9715 19.9282 22.1123 20.1144 22.2639 20.2179C22.4114 20.313 22.603 20.3313 22.8385 20.2728C23.4635 20.1175 24.0548 19.8718 24.6125 19.5356C25.1703 19.1995 25.6147 18.8914 25.946 18.6115C26.2732 18.3232 26.464 18.1723 26.5183 18.1588C26.5817 18.143 26.665 18.1788 26.7682 18.2661C26.8763 18.3428 26.9629 18.4483 27.028 18.5827C27.1663 18.8683 27.0864 19.2693 26.7884 19.7857C26.4864 20.2936 26.0537 20.7728 25.4905 21.2233C24.9363 21.6715 24.3784 21.9654 23.8168 22.1049C23.2552 22.2444 22.5094 22.0767 21.5793 21.6019C20.6584 21.1249 20.0596 20.6008 19.783 20.0295C19.3967 19.2315 19.2337 18.2556 19.2941 17.1018C19.3505 15.9397 19.6325 14.8768 20.1401 13.9132C20.6567 12.9472 21.3181 12.3642 22.1243 12.1639Z" fill="#CC4D4D"/>
</g>
<defs>
<filter id="filter0_d_208_6" x="2.91962" y="11.7656" width="33.2858" height="22.418" filterUnits="userSpaceOnUse" color-interpolation-filters="sRGB">
<feFlood flood-opacity="0" result="BackgroundImageFix"/>
<feColorMatrix in="SourceAlpha" type="matrix" values="0 0 0 0 0 0 0 0 0 0 0 0 0 0 0 0 0 0 127 0" result="hardAlpha"/>
<feOffset dx="4" dy="4"/>
<feGaussianBlur stdDeviation="2"/>
<feComposite in2="hardAlpha" operator="out"/>
<feColorMatrix type="matrix" values="0 0 0 0 0 0 0 0 0 0 0 0 0 0 0 0 0 0 0.58 0"/>
<feBlend mode="normal" in2="BackgroundImageFix" result="effect1_dropShadow_208_6"/>
<feBlend mode="normal" in="SourceGraphic" in2="effect1_dropShadow_208_6" result="shape"/>
</filter>
</defs>
</svg>
