<svg width="570" height="358" viewBox="0 0 570 358" fill="none" xmlns="http://www.w3.org/2000/svg">
<path d="M122.539 350.152L131.816 325.562H134.922L135.84 328.922L126.094 354H122.637L122.539 350.152ZM124.238 325.562L124.941 350.836L123.77 354H119.746L118.203 325.562H124.238ZM136.367 350.152L144.707 325.562H150.977L140.527 354H136.641L136.367 350.152ZM137.07 325.562L138.77 350.875L137.734 354H134.219L132.207 328.375L133.789 325.562H137.07ZM168.75 349.078L167.891 354H153.164L154.023 349.078H168.75ZM160.234 325.562L155.293 354H149.102L154.023 325.562H160.234ZM168.926 337.008L168.105 341.773H155.273L156.113 337.008H168.926ZM172.832 325.562L171.973 330.504H157.227L158.105 325.562H172.832ZM184.336 341.715H176.953L177.676 337.457L183.223 337.477C184.043 337.477 184.831 337.372 185.586 337.164C186.354 336.943 187.005 336.578 187.539 336.07C188.073 335.549 188.405 334.827 188.535 333.902C188.665 333.069 188.594 332.411 188.32 331.93C188.06 331.435 187.643 331.083 187.07 330.875C186.51 330.654 185.846 330.536 185.078 330.523L181.172 330.504L177.09 354H170.898L175.82 325.562L185.273 325.582C186.497 325.595 187.695 325.738 188.867 326.012C190.052 326.272 191.107 326.695 192.031 327.281C192.956 327.854 193.678 328.629 194.199 329.605C194.72 330.582 194.935 331.793 194.844 333.238C194.753 334.801 194.303 336.077 193.496 337.066C192.702 338.056 191.68 338.792 190.43 339.273C189.193 339.755 187.858 340.029 186.426 340.094L184.336 341.715ZM182.031 354H173.105L176.211 349.078L182.227 349.098C183.034 349.085 183.789 348.948 184.492 348.688C185.195 348.427 185.781 348.023 186.25 347.477C186.732 346.93 187.038 346.24 187.168 345.406C187.285 344.677 187.266 344.046 187.109 343.512C186.953 342.978 186.647 342.561 186.191 342.262C185.736 341.949 185.137 341.773 184.395 341.734L178.516 341.715L179.297 337.457L185.859 337.477L186.934 339.137C188.223 339.189 189.355 339.456 190.332 339.938C191.322 340.419 192.077 341.129 192.598 342.066C193.132 342.991 193.353 344.124 193.262 345.465C193.132 347.548 192.526 349.215 191.445 350.465C190.378 351.715 189.01 352.62 187.344 353.18C185.677 353.74 183.906 354.013 182.031 354ZM214.785 354H208.359L209.258 349.078L214.98 349.117C216.673 349.117 218.086 348.707 219.219 347.887C220.352 347.066 221.243 345.992 221.895 344.664C222.546 343.323 222.982 341.897 223.203 340.387L223.359 339.078C223.477 338.154 223.522 337.203 223.496 336.227C223.47 335.237 223.307 334.319 223.008 333.473C222.708 332.626 222.227 331.936 221.562 331.402C220.898 330.855 219.98 330.562 218.809 330.523L212.324 330.504L213.184 325.562L219.004 325.582C220.905 325.621 222.565 326.012 223.984 326.754C225.417 327.483 226.582 328.479 227.48 329.742C228.392 330.992 229.03 332.424 229.395 334.039C229.772 335.641 229.857 337.327 229.648 339.098L229.492 340.406C229.245 342.32 228.711 344.104 227.891 345.758C227.07 347.411 226.016 348.857 224.727 350.094C223.438 351.331 221.953 352.294 220.273 352.984C218.594 353.674 216.764 354.013 214.785 354ZM216.836 325.562L211.895 354H205.703L210.625 325.562H216.836ZM250.508 349.078L249.648 354H234.922L235.781 349.078H250.508ZM241.992 325.562L237.051 354H230.859L235.781 325.562H241.992ZM250.684 337.008L249.863 341.773H237.031L237.871 337.008H250.684ZM254.59 325.562L253.73 330.504H238.984L239.863 325.562H254.59ZM264.062 347.418L273.535 325.562H280.645L266.738 354H262.07L264.062 347.418ZM261.855 325.562L264.551 347.984L264.531 354H260.098L255.137 325.562H261.855ZM303.477 331.285L292.52 354H285.664L300.82 325.562H305.176L303.477 331.285ZM305.508 354L302.324 330.66L302.52 325.562H306.621L311.934 354H305.508ZM306.992 343.414L306.113 348.336H291.699L292.578 343.414H306.992ZM342.012 325.562L337.07 354H331.055L323.73 335.387L320.488 354H314.297L319.219 325.562H325.273L332.598 344.195L335.82 325.562H342.012ZM350.723 354H344.297L345.195 349.078L350.918 349.117C352.611 349.117 354.023 348.707 355.156 347.887C356.289 347.066 357.181 345.992 357.832 344.664C358.483 343.323 358.919 341.897 359.141 340.387L359.297 339.078C359.414 338.154 359.46 337.203 359.434 336.227C359.408 335.237 359.245 334.319 358.945 333.473C358.646 332.626 358.164 331.936 357.5 331.402C356.836 330.855 355.918 330.562 354.746 330.523L348.262 330.504L349.121 325.562L354.941 325.582C356.842 325.621 358.503 326.012 359.922 326.754C361.354 327.483 362.52 328.479 363.418 329.742C364.329 330.992 364.967 332.424 365.332 334.039C365.71 335.641 365.794 337.327 365.586 339.098L365.43 340.406C365.182 342.32 364.648 344.104 363.828 345.758C363.008 347.411 361.953 348.857 360.664 350.094C359.375 351.331 357.891 352.294 356.211 352.984C354.531 353.674 352.702 354.013 350.723 354ZM352.773 325.562L347.832 354H341.641L346.562 325.562H352.773ZM385.762 354H379.336L380.234 349.078L385.957 349.117C387.65 349.117 389.062 348.707 390.195 347.887C391.328 347.066 392.22 345.992 392.871 344.664C393.522 343.323 393.958 341.897 394.18 340.387L394.336 339.078C394.453 338.154 394.499 337.203 394.473 336.227C394.447 335.237 394.284 334.319 393.984 333.473C393.685 332.626 393.203 331.936 392.539 331.402C391.875 330.855 390.957 330.562 389.785 330.523L383.301 330.504L384.16 325.562L389.98 325.582C391.882 325.621 393.542 326.012 394.961 326.754C396.393 327.483 397.559 328.479 398.457 329.742C399.368 330.992 400.007 332.424 400.371 334.039C400.749 335.641 400.833 337.327 400.625 339.098L400.469 340.406C400.221 342.32 399.688 344.104 398.867 345.758C398.047 347.411 396.992 348.857 395.703 350.094C394.414 351.331 392.93 352.294 391.25 352.984C389.57 353.674 387.741 354.013 385.762 354ZM387.812 325.562L382.871 354H376.68L381.602 325.562H387.812ZM421.484 349.078L420.625 354H405.898L406.758 349.078H421.484ZM412.969 325.562L408.027 354H401.836L406.758 325.562H412.969ZM421.66 337.008L420.84 341.773H408.008L408.848 337.008H421.66ZM425.566 325.562L424.707 330.504H409.961L410.84 325.562H425.566ZM439.238 346.363C439.355 345.712 439.303 345.159 439.082 344.703C438.874 344.247 438.561 343.863 438.145 343.551C437.728 343.238 437.253 342.971 436.719 342.75C436.185 342.529 435.671 342.32 435.176 342.125C434.16 341.734 433.158 341.285 432.168 340.777C431.191 340.27 430.306 339.671 429.512 338.98C428.717 338.29 428.092 337.483 427.637 336.559C427.194 335.621 427.012 334.527 427.09 333.277C427.181 331.858 427.578 330.634 428.281 329.605C428.997 328.564 429.915 327.711 431.035 327.047C432.155 326.383 433.359 325.901 434.648 325.602C435.951 325.289 437.233 325.146 438.496 325.172C440.267 325.198 441.849 325.562 443.242 326.266C444.648 326.969 445.749 327.978 446.543 329.293C447.35 330.595 447.734 332.158 447.695 333.98H441.543C441.582 333.186 441.478 332.496 441.23 331.91C440.996 331.324 440.612 330.868 440.078 330.543C439.544 330.217 438.867 330.048 438.047 330.035C437.344 330.009 436.647 330.113 435.957 330.348C435.267 330.582 434.674 330.947 434.18 331.441C433.685 331.923 433.366 332.548 433.223 333.316C433.132 333.889 433.216 334.391 433.477 334.82C433.75 335.237 434.121 335.595 434.59 335.895C435.072 336.181 435.573 336.428 436.094 336.637C436.628 336.845 437.103 337.021 437.52 337.164C438.574 337.568 439.59 338.036 440.566 338.57C441.556 339.091 442.428 339.716 443.184 340.445C443.952 341.161 444.538 342.001 444.941 342.965C445.345 343.928 445.508 345.042 445.43 346.305C445.326 347.763 444.935 349.007 444.258 350.035C443.581 351.064 442.715 351.904 441.66 352.555C440.605 353.206 439.44 353.681 438.164 353.98C436.901 354.28 435.618 354.423 434.316 354.41C432.884 354.384 431.536 354.163 430.273 353.746C429.023 353.329 427.93 352.717 426.992 351.91C426.055 351.103 425.326 350.12 424.805 348.961C424.297 347.789 424.062 346.441 424.102 344.918L430.312 344.938C430.26 345.693 430.312 346.363 430.469 346.949C430.638 347.522 430.898 348.004 431.25 348.395C431.615 348.772 432.077 349.059 432.637 349.254C433.21 349.449 433.887 349.547 434.668 349.547C435.358 349.56 436.029 349.456 436.68 349.234C437.344 349.013 437.904 348.668 438.359 348.199C438.828 347.73 439.121 347.118 439.238 346.363ZM459.258 325.562L454.336 354H448.145L453.086 325.562H459.258ZM484.121 338.98L482.305 350.465C481.445 351.493 480.371 352.294 479.082 352.867C477.793 353.44 476.439 353.837 475.02 354.059C473.613 354.293 472.279 354.397 471.016 354.371C469.049 354.345 467.383 353.954 466.016 353.199C464.648 352.444 463.555 351.422 462.734 350.133C461.927 348.844 461.38 347.385 461.094 345.758C460.82 344.117 460.794 342.405 461.016 340.621L461.25 338.961C461.497 337.125 461.973 335.374 462.676 333.707C463.392 332.04 464.323 330.562 465.469 329.273C466.628 327.971 467.995 326.949 469.57 326.207C471.159 325.465 472.956 325.113 474.961 325.152C477.018 325.178 478.763 325.569 480.195 326.324C481.641 327.079 482.76 328.167 483.555 329.586C484.349 330.992 484.811 332.704 484.941 334.723L479.004 334.703C478.926 333.805 478.743 333.017 478.457 332.34C478.184 331.65 477.754 331.109 477.168 330.719C476.582 330.315 475.794 330.094 474.805 330.055C473.607 330.003 472.578 330.25 471.719 330.797C470.872 331.331 470.163 332.047 469.59 332.945C469.017 333.831 468.568 334.801 468.242 335.855C467.917 336.91 467.682 337.926 467.539 338.902L467.305 340.641C467.201 341.552 467.142 342.516 467.129 343.531C467.129 344.547 467.259 345.497 467.52 346.383C467.78 347.268 468.236 347.997 468.887 348.57C469.551 349.13 470.482 349.423 471.68 349.449C472.24 349.462 472.78 349.43 473.301 349.352C473.822 349.26 474.323 349.117 474.805 348.922C475.299 348.727 475.775 348.473 476.23 348.16L477.148 343.414H472.227L473.008 338.98H484.121ZM513.418 325.562L508.477 354H502.461L495.137 335.387L491.895 354H485.703L490.625 325.562H496.68L504.004 344.195L507.227 325.562H513.418ZM532.695 349.078L531.836 354H517.109L517.969 349.078H532.695ZM524.18 325.562L519.238 354H513.047L517.969 325.562H524.18ZM532.871 337.008L532.051 341.773H519.219L520.059 337.008H532.871ZM536.777 325.562L535.918 330.504H521.172L522.051 325.562H536.777ZM539.766 325.562L550.039 325.582C551.771 325.608 553.353 325.927 554.785 326.539C556.23 327.138 557.357 328.049 558.164 329.273C558.971 330.497 559.31 332.066 559.18 333.98C559.062 335.53 558.698 336.845 558.086 337.926C557.487 338.993 556.68 339.905 555.664 340.66C554.648 341.402 553.464 342.053 552.109 342.613L549.902 343.727H540.547L541.387 338.785L547.793 338.824C548.691 338.811 549.505 338.635 550.234 338.297C550.964 337.958 551.562 337.477 552.031 336.852C552.5 336.214 552.793 335.432 552.91 334.508C553.027 333.74 552.988 333.062 552.793 332.477C552.611 331.891 552.266 331.428 551.758 331.09C551.263 330.751 550.625 330.562 549.844 330.523L545.117 330.504L541.035 354H534.844L539.766 325.562ZM550.254 354L546.25 341.363L552.52 341.344L556.875 353.688L556.855 354H550.254Z" fill="white"/>
<path d="M29.5 296H17.0938V251H39.2188C41.3021 251 43.3125 251.25 45.25 251.75C47.1875 252.229 48.8958 253 50.375 254.062C51.875 255.104 53.0625 256.458 53.9375 258.125C54.8333 259.792 55.2812 261.812 55.2812 264.188C55.2812 266.042 54.8854 267.792 54.0938 269.438C53.3229 271.062 52.2812 272.521 50.9688 273.812C49.6771 275.083 48.1875 276.146 46.5 277C44.8125 277.833 43.0625 278.385 41.25 278.656C42.0625 280.031 42.9062 281.333 43.7812 282.562C44.6771 283.792 45.5729 284.948 46.4688 286.031C47.3854 287.094 48.2917 288.083 49.1875 289C50.0833 289.896 50.9375 290.719 51.75 291.469C53.6667 293.219 55.5625 294.729 57.4375 296H41.9688C40.7188 294.812 39.5312 293.385 38.4062 291.719C37.4479 290.302 36.4792 288.552 35.5 286.469C34.5417 284.365 33.8021 281.938 33.2812 279.188H29.5V296ZM42.6875 264.188C42.6875 261.167 41.9479 258.948 40.4688 257.531C39.0104 256.115 36.8125 255.406 33.875 255.406H29.5V274.938H33.875C35.4375 274.938 36.7708 274.646 37.875 274.062C39 273.458 39.9167 272.667 40.625 271.688C41.3333 270.688 41.8542 269.542 42.1875 268.25C42.5208 266.958 42.6875 265.604 42.6875 264.188ZM99.4062 277.875C99.4062 279.75 99.1562 281.51 98.6562 283.156C98.1562 284.802 97.4583 286.323 96.5625 287.719C95.6875 289.115 94.625 290.375 93.375 291.5C92.125 292.604 90.75 293.542 89.25 294.312C87.7708 295.083 86.1771 295.677 84.4688 296.094C82.7812 296.51 81.0417 296.719 79.25 296.719C77.4583 296.719 75.7188 296.51 74.0312 296.094C72.3438 295.677 70.75 295.083 69.25 294.312C67.7708 293.542 66.4062 292.604 65.1562 291.5C63.9062 290.375 62.8333 289.115 61.9375 287.719C61.0625 286.323 60.375 284.802 59.875 283.156C59.375 281.49 59.125 279.729 59.125 277.875C59.125 276.021 59.375 274.271 59.875 272.625C60.375 270.958 61.0625 269.427 61.9375 268.031C62.8333 266.635 63.9062 265.385 65.1562 264.281C66.4062 263.156 67.7708 262.208 69.25 261.438C70.75 260.667 72.3438 260.073 74.0312 259.656C75.7188 259.24 77.4583 259.031 79.25 259.031C81.0417 259.031 82.7812 259.24 84.4688 259.656C86.1771 260.073 87.7708 260.667 89.25 261.438C90.75 262.208 92.125 263.156 93.375 264.281C94.625 265.385 95.6875 266.635 96.5625 268.031C97.4583 269.427 98.1562 270.958 98.6562 272.625C99.1562 274.271 99.4062 276.021 99.4062 277.875ZM88.6562 277.875C88.6562 276.875 88.5938 275.823 88.4688 274.719C88.3646 273.594 88.1771 272.5 87.9062 271.438C87.6354 270.354 87.2604 269.323 86.7812 268.344C86.3229 267.344 85.75 266.479 85.0625 265.75C84.375 265 83.5521 264.406 82.5938 263.969C81.6354 263.51 80.5208 263.281 79.25 263.281C78.0417 263.281 76.9688 263.51 76.0312 263.969C75.0938 264.427 74.2708 265.042 73.5625 265.812C72.875 266.562 72.2917 267.438 71.8125 268.438C71.3542 269.438 70.9792 270.479 70.6875 271.562C70.3958 272.625 70.1875 273.708 70.0625 274.812C69.9375 275.896 69.875 276.917 69.875 277.875C69.875 278.833 69.9375 279.865 70.0625 280.969C70.1875 282.052 70.3958 283.135 70.6875 284.219C70.9792 285.302 71.3542 286.344 71.8125 287.344C72.2917 288.323 72.875 289.198 73.5625 289.969C74.2708 290.719 75.0938 291.323 76.0312 291.781C76.9688 292.24 78.0417 292.469 79.25 292.469C80.5 292.469 81.6042 292.25 82.5625 291.812C83.5208 291.354 84.3438 290.75 85.0312 290C85.7396 289.25 86.3229 288.385 86.7812 287.406C87.2396 286.427 87.6042 285.396 87.875 284.312C88.1667 283.229 88.3646 282.135 88.4688 281.031C88.5938 279.927 88.6562 278.875 88.6562 277.875ZM142.469 296H138.406L133.719 288.156C133.26 289.469 132.625 290.656 131.812 291.719C131.021 292.781 130.094 293.698 129.031 294.469C127.99 295.219 126.833 295.802 125.562 296.219C124.312 296.635 122.99 296.844 121.594 296.844C118.844 296.844 116.385 296.354 114.219 295.375C112.052 294.396 110.219 293.062 108.719 291.375C107.219 289.667 106.073 287.667 105.281 285.375C104.49 283.083 104.094 280.625 104.094 278C104.094 275.375 104.49 272.917 105.281 270.625C106.073 268.333 107.219 266.344 108.719 264.656C110.219 262.969 112.052 261.635 114.219 260.656C116.385 259.677 118.844 259.188 121.594 259.188C123.698 259.188 125.625 259.594 127.375 260.406C129.146 261.219 130.656 262.49 131.906 264.219V246.625H142.469V296ZM131.844 278C131.844 277.167 131.781 276.25 131.656 275.25C131.531 274.25 131.333 273.24 131.062 272.219C130.792 271.198 130.438 270.208 130 269.25C129.562 268.292 129.021 267.438 128.375 266.688C127.75 265.938 127.01 265.344 126.156 264.906C125.323 264.448 124.365 264.219 123.281 264.219C122.094 264.219 121.062 264.438 120.188 264.875C119.312 265.292 118.562 265.865 117.938 266.594C117.312 267.302 116.792 268.125 116.375 269.062C115.979 270 115.667 270.979 115.438 272C115.208 273.021 115.042 274.052 114.938 275.094C114.854 276.115 114.812 277.083 114.812 278C114.812 278.917 114.854 279.896 114.938 280.938C115.042 281.958 115.208 282.979 115.438 284C115.667 285.021 115.979 286.01 116.375 286.969C116.792 287.906 117.312 288.74 117.938 289.469C118.562 290.177 119.312 290.75 120.188 291.188C121.062 291.604 122.094 291.812 123.281 291.812C124.469 291.812 125.51 291.604 126.406 291.188C127.302 290.771 128.062 290.208 128.688 289.5C129.333 288.771 129.854 287.948 130.25 287.031C130.667 286.094 130.99 285.115 131.219 284.094C131.448 283.052 131.604 282.01 131.688 280.969C131.792 279.927 131.844 278.938 131.844 278ZM181.969 263.094L176.031 272.938C175.781 272.104 175.458 271.167 175.062 270.125C174.667 269.083 174.177 268.115 173.594 267.219C173.01 266.302 172.312 265.542 171.5 264.938C170.688 264.312 169.75 264 168.688 264C167.708 264 166.854 264.25 166.125 264.75C165.417 265.25 164.812 265.906 164.312 266.719C163.812 267.51 163.396 268.417 163.062 269.438C162.75 270.438 162.5 271.458 162.312 272.5C162.146 273.521 162.031 274.51 161.969 275.469C161.906 276.406 161.875 277.219 161.875 277.906V296H151.281V259.906H155.344L159.625 268.312C160.208 266.958 160.875 265.719 161.625 264.594C162.375 263.448 163.24 262.469 164.219 261.656C165.198 260.823 166.302 260.177 167.531 259.719C168.781 259.26 170.188 259.031 171.75 259.031C172.562 259.031 173.469 259.104 174.469 259.25C175.469 259.375 176.448 259.604 177.406 259.938C178.365 260.25 179.25 260.667 180.062 261.188C180.875 261.708 181.51 262.344 181.969 263.094ZM197.5 251.188C197.5 251.979 197.344 252.729 197.031 253.438C196.74 254.146 196.333 254.76 195.812 255.281C195.292 255.802 194.677 256.219 193.969 256.531C193.26 256.823 192.51 256.969 191.719 256.969C190.927 256.969 190.177 256.823 189.469 256.531C188.781 256.219 188.177 255.802 187.656 255.281C187.135 254.76 186.719 254.146 186.406 253.438C186.115 252.729 185.969 251.979 185.969 251.188C185.969 250.396 186.115 249.656 186.406 248.969C186.719 248.26 187.135 247.646 187.656 247.125C188.177 246.604 188.781 246.198 189.469 245.906C190.177 245.594 190.927 245.438 191.719 245.438C192.51 245.438 193.26 245.594 193.969 245.906C194.677 246.198 195.292 246.604 195.812 247.125C196.333 247.646 196.74 248.26 197.031 248.969C197.344 249.656 197.5 250.396 197.5 251.188ZM197.031 296H186.438V259.938H197.031V296ZM242.25 291.656C242.25 294.531 241.823 297.24 240.969 299.781C240.115 302.323 238.875 304.542 237.25 306.438C235.625 308.354 233.625 309.865 231.25 310.969C228.896 312.094 226.208 312.656 223.188 312.656C221.521 312.656 219.833 312.469 218.125 312.094C216.438 311.719 214.833 311.135 213.312 310.344C211.812 309.573 210.458 308.583 209.25 307.375C208.062 306.188 207.125 304.781 206.438 303.156L211 301.438C211.396 302.458 211.906 303.396 212.531 304.25C213.177 305.104 213.917 305.833 214.75 306.438C215.583 307.062 216.5 307.542 217.5 307.875C218.5 308.229 219.552 308.406 220.656 308.406C222.74 308.406 224.479 307.979 225.875 307.125C227.292 306.271 228.427 305.156 229.281 303.781C230.135 302.406 230.75 300.844 231.125 299.094C231.5 297.365 231.688 295.604 231.688 293.812V291.688C230.438 293.396 228.927 294.667 227.156 295.5C225.406 296.312 223.479 296.719 221.375 296.719C218.625 296.719 216.167 296.229 214 295.25C211.833 294.271 210 292.938 208.5 291.25C207 289.542 205.854 287.542 205.062 285.25C204.271 282.958 203.875 280.5 203.875 277.875C203.875 275.25 204.271 272.792 205.062 270.5C205.854 268.208 207 266.219 208.5 264.531C210 262.823 211.833 261.479 214 260.5C216.167 259.521 218.625 259.031 221.375 259.031C222.771 259.031 224.094 259.24 225.344 259.656C226.615 260.073 227.771 260.667 228.812 261.438C229.875 262.188 230.802 263.104 231.594 264.188C232.406 265.25 233.042 266.438 233.5 267.75L238.188 259.906H242.25V291.656ZM231.625 277.875C231.625 276.938 231.573 275.948 231.469 274.906C231.385 273.865 231.229 272.833 231 271.812C230.771 270.792 230.448 269.823 230.031 268.906C229.635 267.969 229.115 267.146 228.469 266.438C227.844 265.708 227.083 265.135 226.188 264.719C225.292 264.302 224.25 264.094 223.062 264.094C221.875 264.094 220.844 264.312 219.969 264.75C219.094 265.167 218.344 265.74 217.719 266.469C217.094 267.177 216.573 268 216.156 268.938C215.76 269.875 215.448 270.854 215.219 271.875C214.99 272.896 214.823 273.927 214.719 274.969C214.635 275.99 214.594 276.958 214.594 277.875C214.594 278.792 214.635 279.771 214.719 280.812C214.823 281.854 214.99 282.885 215.219 283.906C215.448 284.927 215.76 285.906 216.156 286.844C216.573 287.781 217.094 288.615 217.719 289.344C218.344 290.052 219.094 290.625 219.969 291.062C220.844 291.479 221.875 291.688 223.062 291.688C224.146 291.688 225.104 291.469 225.938 291.031C226.792 290.573 227.531 289.969 228.156 289.219C228.802 288.469 229.344 287.615 229.781 286.656C230.219 285.698 230.573 284.708 230.844 283.688C231.115 282.667 231.312 281.656 231.438 280.656C231.562 279.635 231.625 278.708 231.625 277.875ZM289.219 277.875C289.219 279.75 288.969 281.51 288.469 283.156C287.969 284.802 287.271 286.323 286.375 287.719C285.5 289.115 284.438 290.375 283.188 291.5C281.938 292.604 280.562 293.542 279.062 294.312C277.583 295.083 275.99 295.677 274.281 296.094C272.594 296.51 270.854 296.719 269.062 296.719C267.271 296.719 265.531 296.51 263.844 296.094C262.156 295.677 260.562 295.083 259.062 294.312C257.583 293.542 256.219 292.604 254.969 291.5C253.719 290.375 252.646 289.115 251.75 287.719C250.875 286.323 250.188 284.802 249.688 283.156C249.188 281.49 248.938 279.729 248.938 277.875C248.938 276.021 249.188 274.271 249.688 272.625C250.188 270.958 250.875 269.427 251.75 268.031C252.646 266.635 253.719 265.385 254.969 264.281C256.219 263.156 257.583 262.208 259.062 261.438C260.562 260.667 262.156 260.073 263.844 259.656C265.531 259.24 267.271 259.031 269.062 259.031C270.854 259.031 272.594 259.24 274.281 259.656C275.99 260.073 277.583 260.667 279.062 261.438C280.562 262.208 281.938 263.156 283.188 264.281C284.438 265.385 285.5 266.635 286.375 268.031C287.271 269.427 287.969 270.958 288.469 272.625C288.969 274.271 289.219 276.021 289.219 277.875ZM278.469 277.875C278.469 276.875 278.406 275.823 278.281 274.719C278.177 273.594 277.99 272.5 277.719 271.438C277.448 270.354 277.073 269.323 276.594 268.344C276.135 267.344 275.562 266.479 274.875 265.75C274.188 265 273.365 264.406 272.406 263.969C271.448 263.51 270.333 263.281 269.062 263.281C267.854 263.281 266.781 263.51 265.844 263.969C264.906 264.427 264.083 265.042 263.375 265.812C262.688 266.562 262.104 267.438 261.625 268.438C261.167 269.438 260.792 270.479 260.5 271.562C260.208 272.625 260 273.708 259.875 274.812C259.75 275.896 259.688 276.917 259.688 277.875C259.688 278.833 259.75 279.865 259.875 280.969C260 282.052 260.208 283.135 260.5 284.219C260.792 285.302 261.167 286.344 261.625 287.344C262.104 288.323 262.688 289.198 263.375 289.969C264.083 290.719 264.906 291.323 265.844 291.781C266.781 292.24 267.854 292.469 269.062 292.469C270.312 292.469 271.417 292.25 272.375 291.812C273.333 291.354 274.156 290.75 274.844 290C275.552 289.25 276.135 288.385 276.594 287.406C277.052 286.427 277.417 285.396 277.688 284.312C277.979 283.229 278.177 282.135 278.281 281.031C278.406 279.927 278.469 278.875 278.469 277.875ZM327.125 296H314.719V251H339.031C341.135 251 343.146 251.281 345.062 251.844C347 252.406 348.708 253.26 350.188 254.406C351.667 255.531 352.844 256.958 353.719 258.688C354.615 260.396 355.062 262.406 355.062 264.719C355.062 266.177 354.854 267.552 354.438 268.844C354.021 270.115 353.438 271.281 352.688 272.344C351.958 273.406 351.094 274.365 350.094 275.219C349.094 276.073 348 276.792 346.812 277.375C345.625 277.958 344.365 278.406 343.031 278.719C341.719 279.031 340.385 279.188 339.031 279.188H327.125V296ZM342.5 264.719C342.5 261.823 341.76 259.552 340.281 257.906C338.823 256.24 336.615 255.406 333.656 255.406H327.125V274.938H333.656C335.24 274.938 336.583 274.688 337.688 274.188C338.812 273.667 339.729 272.948 340.438 272.031C341.146 271.115 341.667 270.042 342 268.812C342.333 267.562 342.5 266.198 342.5 264.719ZM396.5 296H385.938V291.688C384.688 293.396 383.177 294.667 381.406 295.5C379.656 296.312 377.729 296.719 375.625 296.719C372.875 296.719 370.417 296.229 368.25 295.25C366.083 294.271 364.25 292.938 362.75 291.25C361.25 289.542 360.104 287.542 359.312 285.25C358.521 282.958 358.125 280.5 358.125 277.875C358.125 275.25 358.521 272.792 359.312 270.5C360.104 268.208 361.25 266.219 362.75 264.531C364.25 262.823 366.083 261.479 368.25 260.5C370.417 259.521 372.875 259.031 375.625 259.031C377.021 259.031 378.344 259.24 379.594 259.656C380.865 260.073 382.021 260.667 383.062 261.438C384.125 262.188 385.052 263.104 385.844 264.188C386.656 265.25 387.292 266.438 387.75 267.75L392.438 259.906H396.5V296ZM385.875 277.875C385.875 276.938 385.823 275.948 385.719 274.906C385.635 273.865 385.479 272.833 385.25 271.812C385.021 270.792 384.698 269.823 384.281 268.906C383.885 267.969 383.365 267.146 382.719 266.438C382.094 265.708 381.333 265.135 380.438 264.719C379.542 264.302 378.5 264.094 377.312 264.094C376.125 264.094 375.094 264.312 374.219 264.75C373.344 265.167 372.594 265.74 371.969 266.469C371.344 267.177 370.823 268 370.406 268.938C370.01 269.875 369.698 270.854 369.469 271.875C369.24 272.896 369.073 273.927 368.969 274.969C368.885 275.99 368.844 276.958 368.844 277.875C368.844 278.792 368.885 279.771 368.969 280.812C369.073 281.854 369.24 282.885 369.469 283.906C369.698 284.927 370.01 285.906 370.406 286.844C370.823 287.781 371.344 288.615 371.969 289.344C372.594 290.052 373.344 290.625 374.219 291.062C375.094 291.479 376.125 291.688 377.312 291.688C378.396 291.688 379.354 291.469 380.188 291.031C381.042 290.573 381.781 289.969 382.406 289.219C383.052 288.469 383.594 287.615 384.031 286.656C384.469 285.698 384.823 284.708 385.094 283.688C385.365 282.667 385.562 281.656 385.688 280.656C385.812 279.635 385.875 278.708 385.875 277.875ZM436.406 284.469C436.406 286.052 436.177 287.458 435.719 288.688C435.26 289.917 434.635 290.99 433.844 291.906C433.052 292.802 432.115 293.562 431.031 294.188C429.948 294.792 428.781 295.281 427.531 295.656C426.302 296.031 425.01 296.302 423.656 296.469C422.302 296.635 420.958 296.719 419.625 296.719C417.833 296.719 416.25 296.604 414.875 296.375C413.5 296.146 412.188 295.781 410.938 295.281C409.688 294.76 408.438 294.094 407.188 293.281C405.958 292.469 404.583 291.479 403.062 290.312L409.219 285.281C409.781 286.344 410.521 287.312 411.438 288.188C412.375 289.042 413.344 289.781 414.344 290.406C415.344 291.031 416.312 291.51 417.25 291.844C418.188 292.177 418.948 292.344 419.531 292.344C420.01 292.344 420.552 292.333 421.156 292.312C421.76 292.271 422.375 292.208 423 292.125C423.625 292.021 424.24 291.875 424.844 291.688C425.448 291.5 425.979 291.25 426.438 290.938C426.917 290.604 427.292 290.198 427.562 289.719C427.854 289.219 428 288.625 428 287.938C428 287.229 427.812 286.615 427.438 286.094C427.083 285.552 426.615 285.083 426.031 284.688C425.448 284.292 424.781 283.958 424.031 283.688C423.281 283.417 422.521 283.177 421.75 282.969C421 282.76 420.271 282.583 419.562 282.438C418.854 282.271 418.24 282.115 417.719 281.969C416.76 281.698 415.75 281.427 414.688 281.156C413.625 280.865 412.573 280.542 411.531 280.188C410.49 279.812 409.49 279.375 408.531 278.875C407.594 278.375 406.76 277.781 406.031 277.094C405.323 276.385 404.75 275.562 404.312 274.625C403.896 273.667 403.688 272.552 403.688 271.281C403.688 268.948 404.146 267 405.062 265.438C406 263.854 407.229 262.594 408.75 261.656C410.271 260.698 412 260.021 413.938 259.625C415.875 259.229 417.844 259.031 419.844 259.031C421.219 259.031 422.667 259.177 424.188 259.469C425.708 259.74 427.188 260.156 428.625 260.719C430.062 261.26 431.406 261.927 432.656 262.719C433.906 263.51 434.948 264.417 435.781 265.438L429.625 270.5C429.167 269.25 428.562 268.177 427.812 267.281C427.083 266.385 426.281 265.656 425.406 265.094C424.552 264.51 423.667 264.083 422.75 263.812C421.854 263.542 421.021 263.406 420.25 263.406C419.5 263.406 418.656 263.438 417.719 263.5C416.781 263.562 415.896 263.74 415.062 264.031C414.25 264.323 413.552 264.771 412.969 265.375C412.406 265.958 412.125 266.771 412.125 267.812C412.125 268.562 412.292 269.208 412.625 269.75C412.979 270.271 413.438 270.729 414 271.125C414.562 271.5 415.198 271.823 415.906 272.094C416.635 272.344 417.375 272.573 418.125 272.781C418.875 272.969 419.604 273.135 420.312 273.281C421.021 273.427 421.656 273.583 422.219 273.75C423.177 274.021 424.188 274.302 425.25 274.594C426.333 274.865 427.396 275.188 428.438 275.562C429.479 275.917 430.479 276.344 431.438 276.844C432.417 277.323 433.271 277.917 434 278.625C434.729 279.333 435.312 280.167 435.75 281.125C436.188 282.062 436.406 283.177 436.406 284.469ZM474.156 284.469C474.156 286.052 473.927 287.458 473.469 288.688C473.01 289.917 472.385 290.99 471.594 291.906C470.802 292.802 469.865 293.562 468.781 294.188C467.698 294.792 466.531 295.281 465.281 295.656C464.052 296.031 462.76 296.302 461.406 296.469C460.052 296.635 458.708 296.719 457.375 296.719C455.583 296.719 454 296.604 452.625 296.375C451.25 296.146 449.938 295.781 448.688 295.281C447.438 294.76 446.188 294.094 444.938 293.281C443.708 292.469 442.333 291.479 440.812 290.312L446.969 285.281C447.531 286.344 448.271 287.312 449.188 288.188C450.125 289.042 451.094 289.781 452.094 290.406C453.094 291.031 454.062 291.51 455 291.844C455.938 292.177 456.698 292.344 457.281 292.344C457.76 292.344 458.302 292.333 458.906 292.312C459.51 292.271 460.125 292.208 460.75 292.125C461.375 292.021 461.99 291.875 462.594 291.688C463.198 291.5 463.729 291.25 464.188 290.938C464.667 290.604 465.042 290.198 465.312 289.719C465.604 289.219 465.75 288.625 465.75 287.938C465.75 287.229 465.562 286.615 465.188 286.094C464.833 285.552 464.365 285.083 463.781 284.688C463.198 284.292 462.531 283.958 461.781 283.688C461.031 283.417 460.271 283.177 459.5 282.969C458.75 282.76 458.021 282.583 457.312 282.438C456.604 282.271 455.99 282.115 455.469 281.969C454.51 281.698 453.5 281.427 452.438 281.156C451.375 280.865 450.323 280.542 449.281 280.188C448.24 279.812 447.24 279.375 446.281 278.875C445.344 278.375 444.51 277.781 443.781 277.094C443.073 276.385 442.5 275.562 442.062 274.625C441.646 273.667 441.438 272.552 441.438 271.281C441.438 268.948 441.896 267 442.812 265.438C443.75 263.854 444.979 262.594 446.5 261.656C448.021 260.698 449.75 260.021 451.688 259.625C453.625 259.229 455.594 259.031 457.594 259.031C458.969 259.031 460.417 259.177 461.938 259.469C463.458 259.74 464.938 260.156 466.375 260.719C467.812 261.26 469.156 261.927 470.406 262.719C471.656 263.51 472.698 264.417 473.531 265.438L467.375 270.5C466.917 269.25 466.312 268.177 465.562 267.281C464.833 266.385 464.031 265.656 463.156 265.094C462.302 264.51 461.417 264.083 460.5 263.812C459.604 263.542 458.771 263.406 458 263.406C457.25 263.406 456.406 263.438 455.469 263.5C454.531 263.562 453.646 263.74 452.812 264.031C452 264.323 451.302 264.771 450.719 265.375C450.156 265.958 449.875 266.771 449.875 267.812C449.875 268.562 450.042 269.208 450.375 269.75C450.729 270.271 451.188 270.729 451.75 271.125C452.312 271.5 452.948 271.823 453.656 272.094C454.385 272.344 455.125 272.573 455.875 272.781C456.625 272.969 457.354 273.135 458.062 273.281C458.771 273.427 459.406 273.583 459.969 273.75C460.927 274.021 461.938 274.302 463 274.594C464.083 274.865 465.146 275.188 466.188 275.562C467.229 275.917 468.229 276.344 469.188 276.844C470.167 277.323 471.021 277.917 471.75 278.625C472.479 279.333 473.062 280.167 473.5 281.125C473.938 282.062 474.156 283.177 474.156 284.469ZM518.969 277.875C518.969 279.75 518.719 281.51 518.219 283.156C517.719 284.802 517.021 286.323 516.125 287.719C515.25 289.115 514.188 290.375 512.938 291.5C511.688 292.604 510.312 293.542 508.812 294.312C507.333 295.083 505.74 295.677 504.031 296.094C502.344 296.51 500.604 296.719 498.812 296.719C497.021 296.719 495.281 296.51 493.594 296.094C491.906 295.677 490.312 295.083 488.812 294.312C487.333 293.542 485.969 292.604 484.719 291.5C483.469 290.375 482.396 289.115 481.5 287.719C480.625 286.323 479.938 284.802 479.438 283.156C478.938 281.49 478.688 279.729 478.688 277.875C478.688 276.021 478.938 274.271 479.438 272.625C479.938 270.958 480.625 269.427 481.5 268.031C482.396 266.635 483.469 265.385 484.719 264.281C485.969 263.156 487.333 262.208 488.812 261.438C490.312 260.667 491.906 260.073 493.594 259.656C495.281 259.24 497.021 259.031 498.812 259.031C500.604 259.031 502.344 259.24 504.031 259.656C505.74 260.073 507.333 260.667 508.812 261.438C510.312 262.208 511.688 263.156 512.938 264.281C514.188 265.385 515.25 266.635 516.125 268.031C517.021 269.427 517.719 270.958 518.219 272.625C518.719 274.271 518.969 276.021 518.969 277.875ZM508.219 277.875C508.219 276.875 508.156 275.823 508.031 274.719C507.927 273.594 507.74 272.5 507.469 271.438C507.198 270.354 506.823 269.323 506.344 268.344C505.885 267.344 505.312 266.479 504.625 265.75C503.938 265 503.115 264.406 502.156 263.969C501.198 263.51 500.083 263.281 498.812 263.281C497.604 263.281 496.531 263.51 495.594 263.969C494.656 264.427 493.833 265.042 493.125 265.812C492.438 266.562 491.854 267.438 491.375 268.438C490.917 269.438 490.542 270.479 490.25 271.562C489.958 272.625 489.75 273.708 489.625 274.812C489.5 275.896 489.438 276.917 489.438 277.875C489.438 278.833 489.5 279.865 489.625 280.969C489.75 282.052 489.958 283.135 490.25 284.219C490.542 285.302 490.917 286.344 491.375 287.344C491.854 288.323 492.438 289.198 493.125 289.969C493.833 290.719 494.656 291.323 495.594 291.781C496.531 292.24 497.604 292.469 498.812 292.469C500.062 292.469 501.167 292.25 502.125 291.812C503.083 291.354 503.906 290.75 504.594 290C505.302 289.25 505.885 288.385 506.344 287.406C506.802 286.427 507.167 285.396 507.438 284.312C507.729 283.229 507.927 282.135 508.031 281.031C508.156 279.927 508.219 278.875 508.219 277.875ZM556.719 284.469C556.719 286.052 556.49 287.458 556.031 288.688C555.573 289.917 554.948 290.99 554.156 291.906C553.365 292.802 552.427 293.562 551.344 294.188C550.26 294.792 549.094 295.281 547.844 295.656C546.615 296.031 545.323 296.302 543.969 296.469C542.615 296.635 541.271 296.719 539.938 296.719C538.146 296.719 536.562 296.604 535.188 296.375C533.812 296.146 532.5 295.781 531.25 295.281C530 294.76 528.75 294.094 527.5 293.281C526.271 292.469 524.896 291.479 523.375 290.312L529.531 285.281C530.094 286.344 530.833 287.312 531.75 288.188C532.688 289.042 533.656 289.781 534.656 290.406C535.656 291.031 536.625 291.51 537.562 291.844C538.5 292.177 539.26 292.344 539.844 292.344C540.323 292.344 540.865 292.333 541.469 292.312C542.073 292.271 542.688 292.208 543.312 292.125C543.938 292.021 544.552 291.875 545.156 291.688C545.76 291.5 546.292 291.25 546.75 290.938C547.229 290.604 547.604 290.198 547.875 289.719C548.167 289.219 548.312 288.625 548.312 287.938C548.312 287.229 548.125 286.615 547.75 286.094C547.396 285.552 546.927 285.083 546.344 284.688C545.76 284.292 545.094 283.958 544.344 283.688C543.594 283.417 542.833 283.177 542.062 282.969C541.312 282.76 540.583 282.583 539.875 282.438C539.167 282.271 538.552 282.115 538.031 281.969C537.073 281.698 536.062 281.427 535 281.156C533.938 280.865 532.885 280.542 531.844 280.188C530.802 279.812 529.802 279.375 528.844 278.875C527.906 278.375 527.073 277.781 526.344 277.094C525.635 276.385 525.062 275.562 524.625 274.625C524.208 273.667 524 272.552 524 271.281C524 268.948 524.458 267 525.375 265.438C526.312 263.854 527.542 262.594 529.062 261.656C530.583 260.698 532.312 260.021 534.25 259.625C536.188 259.229 538.156 259.031 540.156 259.031C541.531 259.031 542.979 259.177 544.5 259.469C546.021 259.74 547.5 260.156 548.938 260.719C550.375 261.26 551.719 261.927 552.969 262.719C554.219 263.51 555.26 264.417 556.094 265.438L549.938 270.5C549.479 269.25 548.875 268.177 548.125 267.281C547.396 266.385 546.594 265.656 545.719 265.094C544.865 264.51 543.979 264.083 543.062 263.812C542.167 263.542 541.333 263.406 540.562 263.406C539.812 263.406 538.969 263.438 538.031 263.5C537.094 263.562 536.208 263.74 535.375 264.031C534.562 264.323 533.865 264.771 533.281 265.375C532.719 265.958 532.438 266.771 532.438 267.812C532.438 268.562 532.604 269.208 532.938 269.75C533.292 270.271 533.75 270.729 534.312 271.125C534.875 271.5 535.51 271.823 536.219 272.094C536.948 272.344 537.688 272.573 538.438 272.781C539.188 272.969 539.917 273.135 540.625 273.281C541.333 273.427 541.969 273.583 542.531 273.75C543.49 274.021 544.5 274.302 545.562 274.594C546.646 274.865 547.708 275.188 548.75 275.562C549.792 275.917 550.792 276.344 551.75 276.844C552.729 277.323 553.583 277.917 554.312 278.625C555.042 279.333 555.625 280.167 556.062 281.125C556.5 282.062 556.719 283.177 556.719 284.469Z" fill="white"/>
<g filter="url(#filter0_i_192_6)">
<path fill-rule="evenodd" clip-rule="evenodd" d="M300.942 11.8787C304.936 11.8787 305.934 13.6243 305.934 14.4971V27.5892C282.114 29.6715 285.13 53.2825 287.364 70.7648C287.939 75.2653 288.462 79.3597 288.462 82.576C288.462 98.2865 278.477 111.379 270.989 113.997C276.98 113.997 283.47 122.725 285.966 127.089L260.965 159.436C262.028 164.164 269.4 176.808 285.966 179.143V182.076C285.966 199.429 291.105 198.812 297.126 198.09C298.372 197.94 299.657 197.786 300.942 197.786C305.659 197.786 305.934 199.25 305.934 200.405V210.878C305.934 215.068 302.606 216.115 300.942 216.115H275.981C244.121 216.115 238.731 193.396 236.183 182.658L236.044 182.076C234.183 174.266 235.098 153.351 235.683 139.962C235.883 135.396 236.044 131.705 236.044 129.708C236.044 123.423 226.06 121.852 221.068 121.852V103.523C236.044 106.142 236.044 100.905 236.044 95.6681C236.044 95.076 235.981 94.2045 235.894 93.019C235.438 86.7909 234.347 71.8958 238.541 43.2997C242.534 16.0682 263.501 11.0059 273.485 11.8787H300.942ZM251.021 197.786L257.519 163.894C261.174 175.857 274.606 182.26 280.35 182.73L251.021 197.786Z" fill="#89B98C"/>
<path d="M316.134 230.407C316.134 231.271 317.132 233 321.126 233H348.583C357.529 232.815 379.534 228.851 383.528 201.881C387.721 173.56 386.63 158.808 386.174 152.64C386.087 151.466 386.024 150.603 386.024 150.016C386.024 144.83 386.024 139.643 401 142.237V124.084C396.008 124.084 386.024 122.528 386.024 116.304C386.024 114.326 386.185 110.671 386.385 106.148C386.97 92.888 387.885 72.1746 386.024 64.4394L385.885 63.8627C383.338 53.2279 377.947 30.7273 346.087 30.7273H321.126C319.462 30.7273 316.134 31.7646 316.134 35.9138L317.299 46.2777C317.728 48.1347 317.299 48.871 322.291 48.871C323.576 48.871 323.696 48.7273 324.943 48.5791C330.963 47.8637 336.102 47.253 336.102 64.4394V72.2191C336.102 72.2191 340.998 64.7888 343.591 61.8462C348.161 56.6597 353.72 59.2185 358.145 61.8462C363.564 65.0642 371.757 72.1289 368.129 77.4056L355.649 95.5583L338.176 82.5921V90.3718L350.657 100.745L336.102 121.491C338.598 125.813 345.088 131.864 351.079 131.864C343.591 134.457 333.606 147.423 333.606 162.982C333.606 166.168 334.129 170.223 334.704 174.68C336.938 191.994 339.955 215.378 316.134 217.441V230.407Z" fill="#89B98C"/>
<path d="M215.382 1.96468L194.534 0L193.586 9.82342L185.058 2.94703L171.791 19.6468L184.11 29.4703L168 38.3113L178.424 57.9582L189.796 51.0818L187.901 64.8346L209.696 66.7992L210.644 53.0465L220.121 61.8875L234.335 44.2054L221.068 32.4173L233.388 25.5409L222.963 6.87639L214.435 11.7881L215.382 1.96468Z" fill="#89B98C"/>
</g>
<defs>
<filter id="filter0_i_192_6" x="168" y="0" width="235" height="234" filterUnits="userSpaceOnUse" color-interpolation-filters="sRGB">
<feFlood flood-opacity="0" result="BackgroundImageFix"/>
<feBlend mode="normal" in="SourceGraphic" in2="BackgroundImageFix" result="shape"/>
<feColorMatrix in="SourceAlpha" type="matrix" values="0 0 0 0 0 0 0 0 0 0 0 0 0 0 0 0 0 0 127 0" result="hardAlpha"/>
<feOffset dx="2" dy="1"/>
<feGaussianBlur stdDeviation="1.6"/>
<feComposite in2="hardAlpha" operator="arithmetic" k2="-1" k3="1"/>
<feColorMatrix type="matrix" values="0 0 0 0 0.120377 0 0 0 0 0.269231 0 0 0 0 0.142705 0 0 0 0.96 0"/>
<feBlend mode="normal" in2="shape" result="effect1_innerShadow_192_6"/>
</filter>
</defs>
</svg>
